<?xml version="1.0" encoding="UTF-8" standalone="no"?>
<!-- Created with Inkscape (http://www.inkscape.org/) -->

<svg
   width="512"
   height="512"
   viewBox="0 0 512 512"
   version="1.1"
   id="svg5"
   sodipodi:docname="MyFoodLog_light.svg"
   inkscape:version="1.1.2 (0a00cf5339, 2022-02-04)"
   xmlns:inkscape="http://www.inkscape.org/namespaces/inkscape"
   xmlns:sodipodi="http://sodipodi.sourceforge.net/DTD/sodipodi-0.dtd"
   xmlns="http://www.w3.org/2000/svg"
   xmlns:svg="http://www.w3.org/2000/svg">
  <sodipodi:namedview
     id="namedview7"
     pagecolor="#ffffff"
     bordercolor="#111111"
     borderopacity="1"
     inkscape:pageshadow="0"
     inkscape:pageopacity="0"
     inkscape:pagecheckerboard="1"
     inkscape:document-units="px"
     showgrid="true"
     inkscape:zoom="1.4042969"
     inkscape:cx="71.566064"
     inkscape:cy="265.2573"
     inkscape:window-width="2490"
     inkscape:window-height="1376"
     inkscape:window-x="0"
     inkscape:window-y="0"
     inkscape:window-maximized="1"
     inkscape:current-layer="layer1">
    <inkscape:grid
       type="xygrid"
       id="grid303" />
  </sodipodi:namedview>
  <defs
     id="defs2" />
  <g
     inkscape:label="Layer 1"
     inkscape:groupmode="layer"
     id="layer1">
    <path
       id="path31"
       style="fill:#000000;fill-rule:evenodd;stroke-width:1.45364"
       d="M 259.66074,49.645506 A 203.99976,204.09306 0 0 0 55.659957,253.73832 203.99976,204.09306 0 0 0 259.66074,457.83114 203.99976,204.09306 0 0 0 463.65996,253.73832 203.99976,204.09306 0 0 0 259.66074,49.645506 Z m 1.13407,15.477696 A 189.00239,188.92356 0 0 1 449.7968,254.04719 189.00239,188.92356 0 0 1 260.79481,442.97118 189.00239,188.92356 0 0 1 71.791266,254.04719 189.00239,188.92356 0 0 1 260.79481,65.123202 Z"
       inkscape:transform-center-x="0.19193324"
       inkscape:transform-center-y="17.755216" />
    <path
       id="path345"
       style="fill:#000000;stroke-width:1.06522"
       d="M 260.27691,89.063557 A 164.12646,163.67879 0 0 0 96.149685,252.74308 164.12646,163.67879 0 0 0 260.27691,416.42104 164.12646,163.67879 0 0 0 424.40257,252.74308 164.12646,163.67879 0 0 0 260.27691,89.063557 Z m 46.40501,115.471223 h 5.32407 v 52.06446 h -5.32407 v -6.69369 c -2.12647,5.01184 -5.04674,7.51734 -8.75905,7.51734 -3.06355,0 -5.5324,-1.61541 -7.40658,-4.84673 -1.85615,-3.25329 -2.78449,-7.53898 -2.78449,-12.85856 0,-6.28676 1.19888,-11.14533 3.59566,-14.57448 C 293.74226,221.71397 297.158,220 301.57313,220 c 1.71198,0 3.41483,0.26332 5.10879,0.79089 z m -186.00378,3.26495 h 7.86676 l 11.00224,37.7536 11.29862,-37.7536 h 7.02752 v 48.79951 h -5.29755 v -39.66608 l -10.92112,36.40114 h -5.48786 l -10.59509,-36.53373 v 39.79867 h -4.89352 z m 74.49947,0 h 27.16631 v 5.17587 h -21.4897 v 16.35438 h 18.78633 v 5.11192 h -18.78633 v 22.15734 h -5.67661 z m 125.47823,0 h 5.67661 v 43.62208 h 19.62557 v 5.17743 H 320.65584 Z M 239.21152,220 c 4.01866,0 7.19942,1.66929 9.54214,5.01052 2.34272,3.31924 3.51298,7.85904 3.51298,13.61825 0,5.8911 -1.17026,10.49712 -3.51298,13.81636 -2.34272,3.31924 -5.58764,4.97776 -9.73245,4.97776 -3.94658,0 -7.08173,-1.69241 -9.40642,-5.07759 -2.30668,-3.38519 -3.45994,-7.93577 -3.45994,-13.65102 0,-5.78119 1.16176,-10.34254 3.48645,-13.68376 C 231.98402,221.66929 235.17484,220 239.21152,220 Z M 270,220 c 4.01866,0 7.19942,1.66929 9.54214,5.01052 2.34272,3.31924 3.51454,7.85904 3.51454,13.61825 0,5.8911 -1.17182,10.49712 -3.51454,13.81636 -2.34272,3.31924 -5.58608,4.97776 -9.7309,4.97776 -3.94658,0 -7.08328,-1.69241 -9.40797,-5.07759 -2.30668,-3.38519 -3.45996,-7.93577 -3.45994,-13.65102 0,-5.78119 1.16332,-10.34254 3.48801,-13.68376 C 262.77406,221.66929 265.96332,220 270,220 Z m 92.36544,0 c 4.01866,0 7.19941,1.66929 9.54213,5.01052 2.34272,3.31924 3.51454,7.85904 3.51454,13.61825 0,5.8911 -1.17182,10.49712 -3.51454,13.81636 -2.34272,3.31924 -5.58608,4.97776 -9.73088,4.97776 -3.94658,0 -7.08173,-1.69241 -9.40643,-5.07759 -2.30667,-3.38519 -3.45994,-7.93577 -3.45994,-13.65102 0,-5.78119 1.16176,-10.34254 3.48647,-13.68376 C 355.1395,221.66929 358.32875,220 362.36544,220 Z m 31.70884,0 c 1.74803,0 3.46786,0.26332 5.16183,0.79089 h 5.32563 v 26.04783 c 0,5.62732 -0.24349,9.78213 -0.73006,12.4639 -0.46854,2.68177 -1.35127,4.88083 -2.64877,6.59541 -2.3247,3.03348 -5.93831,4.54877 -10.84,4.54877 -3.42397,0 -6.71294,-0.64831 -9.8666,-1.94523 v -5.63762 c 3.76636,1.78052 7.02828,2.67061 9.78548,2.67061 5.98294,0 8.97432,-3.87914 8.97432,-11.63868 v -5.63918 c -2.10845,5.01183 -5.02715,7.51734 -8.75749,7.51734 -3.02751,0 -5.48786,-1.5923 -7.38006,-4.77965 -1.87418,-3.20933 -2.811,-7.38725 -2.811,-12.53098 0,-5.86911 1.19887,-10.40735 3.59565,-13.61669 C 386.29801,221.61541 389.6952,220 394.07428,220 Z m -231.22636,0.79089 h 5.40518 l 7.9744,27.46581 8.75904,-27.46581 h 4.70322 l -15.5167,48.83227 h -5.5409 l 4.6221,-13.02392 z m 76.3636,4.08859 c -4.86565,0 -7.29895,4.60446 -7.29895,13.8148 0,9.23233 2.39619,13.84913 7.18975,13.84913 4.93774,0 7.40658,-4.67069 7.40658,-14.01291 0,-9.10044 -2.43174,-13.65102 -7.29738,-13.65102 z m 30.78848,0 c -4.86565,0 -7.29895,4.60446 -7.29895,13.8148 0,9.23233 2.39775,13.84913 7.19132,13.84913 4.93772,0 7.40657,-4.67069 7.40657,-14.01291 0,-9.10044 -2.4333,-13.65102 -7.29894,-13.65102 z m 31.16754,0 c -5.11793,0 -7.67801,4.75847 -7.67801,14.27655 0,3.86878 0.49547,6.93639 1.48663,9.20051 1.00916,2.24213 2.37886,3.36322 4.10887,3.36322 2.32469,0 4.85771,-2.57328 7.59689,-7.71701 v -18.29962 c -2.45084,-0.54954 -4.28896,-0.82365 -5.51438,-0.82365 z m 61.1979,0 c -4.86565,0 -7.29739,4.60446 -7.29739,13.8148 0,9.23233 2.39619,13.84913 7.18975,13.84913 4.93773,0 7.40658,-4.67069 7.40658,-14.01291 0,-9.10044 -2.4333,-13.65102 -7.29894,-13.65102 z m 31.38437,0 c -5.13596,0 -7.70453,4.26414 -7.70453,12.79305 0,3.80283 0.50397,6.82578 1.51314,9.06791 1.00917,2.24214 2.37037,3.36323 4.08236,3.36323 2.3247,0 4.85615,-2.5825 7.59533,-7.74821 v -16.65233 c -2.45084,-0.54954 -4.2789,-0.82365 -5.4863,-0.82365 z M 232.17152,326.94617 c 0.65518,0 1.40395,0.1352 2.24631,0.40558 v 2.44911 c -0.75917,-0.36399 -1.40914,-0.54598 -1.94992,-0.54598 -0.76957,0 -1.30515,0.25478 -1.60674,0.76436 -0.30158,0.49918 -0.45237,1.38315 -0.45237,2.6519 v 2.35551 h 3.50985 v 2.3087 h -3.50985 v 14.63221 h -3.08868 v -14.63221 h -2.24631 v -2.3087 h 2.24631 v -2.02793 c 0,-4.03503 1.61713,-6.05255 4.8514,-6.05255 z m -13.72744,0.38999 h 3.07308 v 19.39001 c 0,0.59278 0.052,1.10236 0.15599,1.52875 0.10399,0.41598 0.27039,0.75916 0.49918,1.02955 0.23919,0.25999 0.52517,0.45238 0.85796,0.57717 0.34318,0.1248 0.73318,0.182 1.16995,0.1716 v 2.23071 c -0.22879,0.0624 -0.54077,0.0936 -0.93595,0.0936 -0.67598,0 -1.32075,-0.11438 -1.93433,-0.34318 -0.60318,-0.22879 -1.12316,-0.55638 -1.55993,-0.98276 -0.42639,-0.43678 -0.75397,-0.96716 -0.98276,-1.59114 -0.2288,-0.63437 -0.34319,-1.35194 -0.34319,-2.15271 z m 119.78757,0 h 3.07308 v 24.6314 h -3.07308 v -3.16667 c -1.22715,2.3711 -2.91188,3.55665 -5.0542,3.55665 -1.76793,0 -3.19267,-0.76437 -4.27423,-2.2931 -1.07115,-1.53914 -1.60673,-3.56706 -1.60673,-6.08376 0,-2.97428 0.69157,-5.27258 2.07472,-6.89492 1.39354,-1.62233 3.36426,-2.4335 5.91216,-2.4335 0.98796,0 1.97072,0.1248 2.94828,0.37439 z m -150.84592,0.96716 c 2.53749,0 5.049,0.32758 7.53449,0.98276 v 3.01068 c -2.57909,-1.02957 -5.15819,-1.54435 -7.73729,-1.54435 -3.36945,0 -5.05419,1.14396 -5.05419,3.43187 0,0.92556 0.31198,1.66393 0.93597,2.21511 0.63437,0.55118 1.79392,1.10755 3.47865,1.66913 l 3.21347,1.04516 c 2.42311,0.79037 4.12863,1.69513 5.1166,2.71429 0.98796,1.00876 1.48194,2.36071 1.48194,4.05584 0,2.05911 -0.75917,3.68665 -2.27751,4.8826 -1.50794,1.18555 -3.55666,1.77833 -6.14616,1.77833 -2.79748,0 -5.82896,-0.46278 -9.09442,-1.38834 v -3.24467 c 2.96387,1.45593 6.03175,2.18391 9.20362,2.18391 3.29667,0 4.945,-1.24275 4.945,-3.72826 0,-1.10234 -0.32239,-1.93951 -0.96716,-2.51149 -0.63437,-0.58237 -1.92912,-1.19075 -3.88424,-1.82512 l -3.13548,-1.02957 c -4.02463,-1.33114 -6.03695,-3.47345 -6.03695,-6.42694 0,-4.18063 2.80788,-6.27094 8.42366,-6.27094 z m 57.53048,0.57717 h 3.27587 v 9.73401 h 11.37194 v -9.73401 h 3.26027 v 23.08707 h -3.26027 V 341.0636 h -11.37194 v 10.90396 h -3.27587 z m 59.68319,2.30871 v 3.83745 h 3.74385 v 2.3087 h -3.74385 v 9.39082 c 0,1.35195 0.1144,2.24631 0.34319,2.6831 0.22879,0.42638 0.70197,0.63957 1.41955,0.63957 0.42638,0 0.77996,-0.0572 1.06075,-0.17159 v 2.18391 c -0.60318,0.19759 -1.17515,0.29638 -1.71593,0.29638 -2.78709,0 -4.18063,-1.68992 -4.18063,-5.06979 v -9.9524 h -1.98112 v -2.3087 h 1.98112 v -3.54106 z m -97.34008,3.46306 c 4.60702,0 6.91053,2.79229 6.91053,8.37687 l -0.0156,0.95155 h -11.30954 c 0.29118,4.02465 2.31391,6.03696 6.06815,6.03696 1.62234,0 3.34346,-0.34318 5.16339,-1.02956 v 2.4335 c -2.01751,0.62398 -3.97784,0.93596 -5.88096,0.93596 -2.61029,0 -4.69541,-0.82156 -6.25535,-2.46469 -1.54954,-1.64313 -2.32431,-3.84265 -2.32431,-6.59854 0,-2.64149 0.68638,-4.74221 2.05913,-6.30215 1.38314,-1.55993 3.24466,-2.3399 5.58456,-2.3399 z m 67.0305,0 c 2.31911,0 4.15464,0.79037 5.50659,2.37111 1.35194,1.57033 2.02791,3.71784 2.02791,6.44253 0,2.7871 -0.67597,4.96581 -2.02791,6.53615 -1.35195,1.57033 -3.22387,2.35549 -5.61578,2.35549 -2.27751,0 -4.08703,-0.80076 -5.42858,-2.4023 -1.33115,-1.60153 -1.99672,-3.75425 -1.99672,-6.45814 0,-2.73508 0.67078,-4.893 2.01232,-6.47373 1.35194,-1.58074 3.19267,-2.37111 5.52217,-2.37111 z m 17.29971,0 c 1.24795,0 2.73509,0.16639 4.46142,0.49918 v 2.57389 c -1.50794,-0.50957 -3.10428,-0.76436 -4.78901,-0.76436 -2.09031,0 -3.13547,0.71757 -3.13547,2.15271 0,0.97756 0.73317,1.71073 2.19951,2.19951 l 2.4491,0.79557 c 3.04708,1.00876 4.57062,2.71429 4.57062,5.11659 0,1.59114 -0.60318,2.84429 -1.80953,3.75945 -1.20635,0.91517 -2.85988,1.37274 -4.9606,1.37274 -1.69514,0 -3.55666,-0.32758 -5.58458,-0.98275 v -2.82349 c 2.01752,0.99836 3.91545,1.49754 5.69378,1.49754 2.3815,0 3.57225,-0.85797 3.57225,-2.5739 0,-1.08155 -0.82676,-1.89792 -2.4803,-2.4491 l -2.74548,-0.90476 c -2.6311,-0.87357 -3.94665,-2.4439 -3.94665,-4.71101 0,-3.17188 2.16831,-4.75781 6.50494,-4.75781 z m 25.58297,0 c 4.60701,0 6.91052,2.79229 6.91052,8.37687 l -0.0156,0.95155 h -11.30954 c 0.29118,4.02465 2.3139,6.03696 6.06815,6.03696 1.62233,0 3.34347,-0.34318 5.1634,-1.02956 v 2.4335 c -2.01752,0.62398 -3.97785,0.93596 -5.88097,0.93596 -2.61029,0 -4.69541,-0.82156 -6.25534,-2.46469 -1.54955,-1.64313 -2.32431,-3.84265 -2.32431,-6.59854 0,-2.64149 0.68637,-4.74221 2.05911,-6.30215 1.38314,-1.55993 3.24467,-2.3399 5.58458,-2.3399 z m -109.95997,2.29311 c -2.63109,0 -4.07144,1.57554 -4.32103,4.72661 h 8.14288 c 0,-3.15107 -1.27396,-4.72661 -3.82185,-4.72661 z m 109.91317,0 c -2.63109,0 -4.07144,1.57554 -4.32103,4.72661 h 8.14287 c 0,-3.15107 -1.27394,-4.72661 -3.82184,-4.72661 z m -42.83588,0.0156 c -2.80788,0 -4.21182,2.17871 -4.21182,6.53613 0,4.36782 1.38314,6.55174 4.14943,6.55174 2.84949,0 4.27422,-2.20991 4.27422,-6.62973 0,-4.30543 -1.40394,-6.45814 -4.21183,-6.45814 z m 60.75955,0 c -2.95347,0 -4.43021,2.25151 -4.43021,6.75452 0,1.83033 0.28598,3.28107 0.85796,4.35223 0.58237,1.06076 1.37275,1.59114 2.37111,1.59114 1.34154,0 2.80268,-1.21676 4.38342,-3.65025 v -8.65766 c -1.41434,-0.25999 -2.4751,-0.38998 -3.18228,-0.38998 z"
       inkscape:transform-center-x="-0.42423576"
       inkscape:transform-center-y="16.759191" />
  </g>
</svg>
